<svg xmlns="http://www.w3.org/2000/svg" viewBox="0 0 346.01 392.31"><defs><style>.cls-1{fill:#243e76;}.cls-2{fill:#186fb5;}</style></defs><g id="Layer_2" data-name="Layer 2"><g id="Layer_1-2" data-name="Layer 1"><path class="cls-1" d="M149.84,96l-11.48,42.26H266.71s15.65,0,13,18.26S261,249.91,258.36,257.74s-6.26,16.69-16.7,16.69H151.92s-4.69,1.05-13.56,8.35-32.81,28.11-32.81,28.11.49-12.23,0-17.22S102.42,275,88.73,274.6,11,274.11,11,274.11L0,318.33H57.33s-9,48.22-7,55.27,6.23,18.23,16.86,18.62,15-.26,20.54-4.89,76.47-69,76.47-69l87.36-.2s30.59,0,42.46-31.43,24-89.61,24-89.61,7.43-33.92,6.78-45.26-4.83-32.22-19.17-42.26S285.85,96,272.84,95.48,149.84,96,149.84,96Z"/><path class="cls-2" d="M346,0l-11,44.35H124.27s-12,3.13-17.22,14.08-23,104.35-23,104.35,2.61,19.83,15.65,21.92,119.33,0,119.33,0l-10.81,46.43H102.88s-54.26,0-63.65-67.83C45.49,126.26,60.62,49,60.62,49s23-43.82,49-46.43S346,0,346,0Z"/></g></g></svg>